<?xml version="1.0" encoding="UTF-8" standalone="no"?>
<!DOCTYPE svg PUBLIC "-//W3C//DTD SVG 1.1//EN"
        "http://www.w3.org/Graphics/SVG/1.1/DTD/svg11.dtd">
<!-- Generated by graphviz version 2.40.1 (20161225.0304)
 -->
<!-- Title: G Pages: 1 -->
<svg width="1219pt" height="1507pt"
     viewBox="0.00 0.00 1219.48 1507.00" xmlns="http://www.w3.org/2000/svg">
    <g id="graph0" class="graph" transform="scale(1 1) rotate(0) translate(4 1503)">
        <title>G</title>
        <polygon fill="#ffffff" stroke="transparent" points="-4,4 -4,-1503 1215.48,-1503 1215.48,4 -4,4"/>
        <g id="clust1" class="cluster">
            <title>cluster_Global</title>
            <path fill="none" stroke="#c0c0c0"
                  d="M20,-8C20,-8 1191.48,-8 1191.48,-8 1197.48,-8 1203.48,-14 1203.48,-20 1203.48,-20 1203.48,-1479 1203.48,-1479 1203.48,-1485 1197.48,-1491 1191.48,-1491 1191.48,-1491 20,-1491 20,-1491 14,-1491 8,-1485 8,-1479 8,-1479 8,-20 8,-20 8,-14 14,-8 20,-8"/>
            <text text-anchor="middle" x="605.74" y="-1477.1" font-family="Times,serif" font-size="11.00"
                  fill="#c0c0c0">Global
            </text>
        </g>
        <g id="clust2" class="cluster">
            <title>cluster_\AdamRocska</title>
            <path fill="none" stroke="#c0c0c0"
                  d="M184.3812,-16C184.3812,-16 1183.48,-16 1183.48,-16 1189.48,-16 1195.48,-22 1195.48,-28 1195.48,-28 1195.48,-1450 1195.48,-1450 1195.48,-1456 1189.48,-1462 1183.48,-1462 1183.48,-1462 184.3812,-1462 184.3812,-1462 178.3812,-1462 172.3812,-1456 172.3812,-1450 172.3812,-1450 172.3812,-28 172.3812,-28 172.3812,-22 178.3812,-16 184.3812,-16"/>
            <text text-anchor="middle" x="683.9306" y="-1448.1" font-family="Times,serif" font-size="11.00"
                  fill="#c0c0c0">AdamRocska
            </text>
        </g>
        <g id="clust3" class="cluster">
            <title>cluster_\AdamRocska\ShippingTier</title>
            <path fill="none" stroke="#c0c0c0"
                  d="M192.3812,-24C192.3812,-24 1175.48,-24 1175.48,-24 1181.48,-24 1187.48,-30 1187.48,-36 1187.48,-36 1187.48,-1421 1187.48,-1421 1187.48,-1427 1181.48,-1433 1175.48,-1433 1175.48,-1433 192.3812,-1433 192.3812,-1433 186.3812,-1433 180.3812,-1427 180.3812,-1421 180.3812,-1421 180.3812,-36 180.3812,-36 180.3812,-30 186.3812,-24 192.3812,-24"/>
            <text text-anchor="middle" x="683.9306" y="-1419.1" font-family="Times,serif" font-size="11.00"
                  fill="#c0c0c0">ShippingTier
            </text>
        </g>
        <g id="clust4" class="cluster">
            <title>cluster_\AdamRocska\ShippingTier\Entity</title>
            <path fill="none" stroke="#c0c0c0"
                  d="M339.7713,-32C339.7713,-32 1167.48,-32 1167.48,-32 1173.48,-32 1179.48,-38 1179.48,-44 1179.48,-44 1179.48,-1392 1179.48,-1392 1179.48,-1398 1173.48,-1404 1167.48,-1404 1167.48,-1404 339.7713,-1404 339.7713,-1404 333.7713,-1404 327.7713,-1398 327.7713,-1392 327.7713,-1392 327.7713,-44 327.7713,-44 327.7713,-38 333.7713,-32 339.7713,-32"/>
            <text text-anchor="middle" x="753.6256" y="-1390.1" font-family="Times,serif" font-size="11.00"
                  fill="#c0c0c0">Entity
            </text>
        </g>
        <g id="clust5" class="cluster">
            <title>cluster_\AdamRocska\ShippingTier\Entity\Runtime</title>
            <path fill="none" stroke="#c0c0c0"
                  d="M487.1614,-330C487.1614,-330 1159.48,-330 1159.48,-330 1165.48,-330 1171.48,-336 1171.48,-342 1171.48,-342 1171.48,-833 1171.48,-833 1171.48,-839 1165.48,-845 1159.48,-845 1159.48,-845 487.1614,-845 487.1614,-845 481.1614,-845 475.1614,-839 475.1614,-833 475.1614,-833 475.1614,-342 475.1614,-342 475.1614,-336 481.1614,-330 487.1614,-330"/>
            <text text-anchor="middle" x="823.3207" y="-831.1" font-family="Times,serif" font-size="11.00"
                  fill="#c0c0c0">Runtime
            </text>
        </g>
        <g id="clust6" class="cluster">
            <title>cluster_\AdamRocska\ShippingTier\Entity\Runtime\DoorToDoorTransitTime</title>
            <path fill="none" stroke="#c0c0c0"
                  d="M726.9361,-338C726.9361,-338 1131.186,-338 1131.186,-338 1137.186,-338 1143.186,-344 1143.186,-350 1143.186,-350 1143.186,-436 1143.186,-436 1143.186,-442 1137.186,-448 1131.186,-448 1131.186,-448 726.9361,-448 726.9361,-448 720.9361,-448 714.9361,-442 714.9361,-436 714.9361,-436 714.9361,-350 714.9361,-350 714.9361,-344 720.9361,-338 726.9361,-338"/>
            <text text-anchor="middle" x="929.0611" y="-434.1" font-family="Times,serif" font-size="11.00"
                  fill="#c0c0c0">DoorToDoorTransitTime
            </text>
        </g>
        <g id="clust7" class="cluster">
            <title>cluster_\AdamRocska\ShippingTier\Entity\Runtime\DoorToDoorTransitTime\Exception</title>
            <path fill="none" stroke="#c0c0c0"
                  d="M1003.0047,-346C1003.0047,-346 1123.186,-346 1123.186,-346 1129.186,-346 1135.186,-352 1135.186,-358 1135.186,-358 1135.186,-407 1135.186,-407 1135.186,-413 1129.186,-419 1123.186,-419 1123.186,-419 1003.0047,-419 1003.0047,-419 997.0047,-419 991.0047,-413 991.0047,-407 991.0047,-407 991.0047,-358 991.0047,-358 991.0047,-352 997.0047,-346 1003.0047,-346"/>
            <text text-anchor="middle" x="1063.0954" y="-405.1" font-family="Times,serif" font-size="11.00"
                  fill="#c0c0c0">Exception
            </text>
        </g>
        <g id="clust8" class="cluster">
            <title>cluster_\AdamRocska\ShippingTier\Entity\Carrier</title>
            <path fill="none" stroke="#c0c0c0"
                  d="M487.1614,-212C487.1614,-212 825.4223,-212 825.4223,-212 831.4223,-212 837.4223,-218 837.4223,-224 837.4223,-224 837.4223,-310 837.4223,-310 837.4223,-316 831.4223,-322 825.4223,-322 825.4223,-322 487.1614,-322 487.1614,-322 481.1614,-322 475.1614,-316 475.1614,-310 475.1614,-310 475.1614,-224 475.1614,-224 475.1614,-218 481.1614,-212 487.1614,-212"/>
            <text text-anchor="middle" x="656.2919" y="-308.1" font-family="Times,serif" font-size="11.00"
                  fill="#c0c0c0">Carrier
            </text>
        </g>
        <g id="clust9" class="cluster">
            <title>cluster_\AdamRocska\ShippingTier\Entity\Carrier\Exception</title>
            <path fill="none" stroke="#c0c0c0"
                  d="M703.8399,-220C703.8399,-220 817.4223,-220 817.4223,-220 823.4223,-220 829.4223,-226 829.4223,-232 829.4223,-232 829.4223,-281 829.4223,-281 829.4223,-287 823.4223,-293 817.4223,-293 817.4223,-293 703.8399,-293 703.8399,-293 697.8399,-293 691.8399,-287 691.8399,-281 691.8399,-281 691.8399,-232 691.8399,-232 691.8399,-226 697.8399,-220 703.8399,-220"/>
            <text text-anchor="middle" x="760.6311" y="-279.1" font-family="Times,serif" font-size="11.00"
                  fill="#c0c0c0">Exception
            </text>
        </g>
        <g id="clust10" class="cluster">
            <title>cluster_\AdamRocska\ShippingTier\Entity\Tier</title>
            <path fill="none" stroke="#c0c0c0"
                  d="M487.1614,-40C487.1614,-40 878.2135,-40 878.2135,-40 884.2135,-40 890.2135,-46 890.2135,-52 890.2135,-52 890.2135,-192 890.2135,-192 890.2135,-198 884.2135,-204 878.2135,-204 878.2135,-204 487.1614,-204 487.1614,-204 481.1614,-204 475.1614,-198 475.1614,-192 475.1614,-192 475.1614,-52 475.1614,-52 475.1614,-46 481.1614,-40 487.1614,-40"/>
            <text text-anchor="middle" x="682.6875" y="-190.1" font-family="Times,serif" font-size="11.00"
                  fill="#c0c0c0">Tier
            </text>
        </g>
        <g id="clust11" class="cluster">
            <title>cluster_\AdamRocska\ShippingTier\Entity\Tier\Exception</title>
            <path fill="none" stroke="#c0c0c0"
                  d="M651.0487,-48C651.0487,-48 870.2135,-48 870.2135,-48 876.2135,-48 882.2135,-54 882.2135,-60 882.2135,-60 882.2135,-163 882.2135,-163 882.2135,-169 876.2135,-175 870.2135,-175 870.2135,-175 651.0487,-175 651.0487,-175 645.0487,-175 639.0487,-169 639.0487,-163 639.0487,-163 639.0487,-60 639.0487,-60 639.0487,-54 645.0487,-48 651.0487,-48"/>
            <text text-anchor="middle" x="760.6311" y="-161.1" font-family="Times,serif" font-size="11.00"
                  fill="#c0c0c0">Exception
            </text>
        </g>
        <!-- \\AdamRocska\\ShippingTier\\Entity\\Runtime\\DoorToDoorTransitTime\\Exception\\InvalidBoundaries -->
        <g id="node1" class="node">
            <title>\\AdamRocska\\ShippingTier\\Entity\\Runtime\\DoorToDoorTransitTime\\Exception\\InvalidBoundaries
            </title>
            <polygon fill="none" stroke="#000000"
                     points="1127.2768,-390 998.914,-390 998.914,-354 1127.2768,-354 1127.2768,-390"/>
            <text text-anchor="middle" x="1063.0954" y="-368.7" font-family="Courier,monospace" font-size="11.00"
                  fill="#000000">InvalidBoundaries
            </text>
        </g>
        <!-- \\AdamRocska\\ShippingTier\\Entity\\Runtime\\DoorToDoorTransitTime\\Exception -->
        <g id="node2" class="node">
            <title>\\AdamRocska\\ShippingTier\\Entity\\Runtime\\DoorToDoorTransitTime\\Exception</title>
            <polygon fill="none" stroke="#000000"
                     points="798.5222,-386 722.74,-386 722.74,-350 798.5222,-350 798.5222,-386"/>
            <text text-anchor="middle" x="760.6311" y="-364.7" font-family="Courier,monospace" font-size="11.00"
                  fill="#000000">Exception
            </text>
        </g>
        <!-- \\AdamRocska\\ShippingTier\\Entity\\Runtime\\DoorToDoorTransitTime\\Exception\\InvalidBoundaries&#45;&gt;\\AdamRocska\\ShippingTier\\Entity\\Runtime\\DoorToDoorTransitTime\\Exception -->
        <g id="edge5" class="edge">
            <title>\\AdamRocska\\ShippingTier\\Entity\\Runtime\\DoorToDoorTransitTime\\Exception\\InvalidBoundaries&#45;&gt;\\AdamRocska\\ShippingTier\\Entity\\Runtime\\DoorToDoorTransitTime\\Exception</title>
            <path fill="none" stroke="#000000"
                  d="M998.9505,-371.1517C942.0068,-370.3986 860.0748,-369.3151 808.631,-368.6348"/>
            <polygon fill="none" stroke="#000000"
                     points="808.4962,-365.1328 798.4508,-368.5002 808.4036,-372.1322 808.4962,-365.1328"/>
        </g>
        <!-- \\AdamRocska\\ShippingTier\\Entity\\Runtime\\Exception -->
        <g id="node10" class="node">
            <title>\\AdamRocska\\ShippingTier\\Entity\\Runtime\\Exception</title>
            <polygon fill="none" stroke="#000000"
                     points="558.7475,-378 482.9653,-378 482.9653,-342 558.7475,-342 558.7475,-378"/>
            <text text-anchor="middle" x="520.8564" y="-356.7" font-family="Courier,monospace" font-size="11.00"
                  fill="#000000">Exception
            </text>
        </g>
        <!-- \\AdamRocska\\ShippingTier\\Entity\\Runtime\\DoorToDoorTransitTime\\Exception&#45;&gt;\\AdamRocska\\ShippingTier\\Entity\\Runtime\\Exception -->
        <g id="edge4" class="edge">
            <title>\\AdamRocska\\ShippingTier\\Entity\\Runtime\\DoorToDoorTransitTime\\Exception&#45;&gt;\\AdamRocska\\ShippingTier\\Entity\\Runtime\\Exception</title>
            <path fill="none" stroke="#000000"
                  d="M722.9026,-366.7412C681.3029,-365.3532 614.2742,-363.1169 568.9378,-361.6042"/>
            <polygon fill="none" stroke="#000000"
                     points="568.8717,-358.1002 558.7605,-361.2647 568.6382,-365.0963 568.8717,-358.1002"/>
        </g>
        <!-- \\AdamRocska\\ShippingTier\\Entity\\Runtime\\WildCardShippingMethodBranch -->
        <g id="node3" class="node">
            <title>\\AdamRocska\\ShippingTier\\Entity\\Runtime\\WildCardShippingMethodBranch</title>
            <polygon fill="none" stroke="#000000"
                     points="1163.3647,-546 962.826,-546 962.826,-510 1163.3647,-510 1163.3647,-546"/>
            <text text-anchor="middle" x="1063.0954" y="-524.7" font-family="Courier,monospace" font-size="11.00"
                  fill="#000000">WildCardShippingMethodBranch
            </text>
        </g>
        <!-- \\AdamRocska\\ShippingTier\\Entity\\LazyTierInjectionAware -->
        <g id="node17" class="node">
            <title>\\AdamRocska\\ShippingTier\\Entity\\LazyTierInjectionAware</title>
            <polygon fill="none" stroke="#000000"
                     points="841.307,-943 679.9552,-943 679.9552,-907 841.307,-907 841.307,-943"/>
            <text text-anchor="middle" x="760.6311" y="-921.7" font-family="Courier,monospace" font-size="11.00"
                  fill="#000000">LazyTierInjectionAware
            </text>
        </g>
        <!-- \\AdamRocska\\ShippingTier\\Entity\\Runtime\\WildCardShippingMethodBranch&#45;&gt;\\AdamRocska\\ShippingTier\\Entity\\LazyTierInjectionAware -->
        <g id="edge2" class="edge">
            <title>\\AdamRocska\\ShippingTier\\Entity\\Runtime\\WildCardShippingMethodBranch&#45;&gt;\\AdamRocska\\ShippingTier\\Entity\\LazyTierInjectionAware</title>
            <path fill="none" stroke="#000000" stroke-dasharray="1,5"
                  d="M972.9682,-546.2704C969.2627,-548.8265 965.8108,-551.7218 962.7108,-555 855.6847,-668.1756 1000.9784,-787.9802 890.7108,-898 879.8619,-908.8245 865.8817,-915.8488 851.1263,-920.3165"/>
            <polygon fill="none" stroke="#000000"
                     points="850.1195,-916.9623 841.3432,-922.8975 851.9052,-923.7307 850.1195,-916.9623"/>
        </g>
        <!-- \\AdamRocska\\ShippingTier\\Entity\\LazyShippingMethodInjectionAware -->
        <g id="node18" class="node">
            <title>\\AdamRocska\\ShippingTier\\Entity\\LazyShippingMethodInjectionAware</title>
            <polygon fill="none" stroke="#000000"
                     points="874.296,-997 646.9663,-997 646.9663,-961 874.296,-961 874.296,-997"/>
            <text text-anchor="middle" x="760.6311" y="-975.7" font-family="Courier,monospace" font-size="11.00"
                  fill="#000000">LazyShippingMethodInjectionAware
            </text>
        </g>
        <!-- \\AdamRocska\\ShippingTier\\Entity\\Runtime\\WildCardShippingMethodBranch&#45;&gt;\\AdamRocska\\ShippingTier\\Entity\\LazyShippingMethodInjectionAware -->
        <g id="edge3" class="edge">
            <title>\\AdamRocska\\ShippingTier\\Entity\\Runtime\\WildCardShippingMethodBranch&#45;&gt;\\AdamRocska\\ShippingTier\\Entity\\LazyShippingMethodInjectionAware</title>
            <path fill="none" stroke="#000000" stroke-dasharray="1,5"
                  d="M972.8574,-546.167C969.1808,-548.7501 965.7654,-551.6795 962.7108,-555 841.3026,-686.9723 1015.9003,-823.609 890.7108,-952 888.2955,-954.4771 885.7166,-956.7565 883.0017,-958.8531"/>
            <polygon fill="none" stroke="#000000"
                     points="880.8059,-956.1125 874.4761,-964.6086 884.7226,-961.9142 880.8059,-956.1125"/>
        </g>
        <!-- \\AdamRocska\\ShippingTier\\Entity\\ShippingMethodBranch -->
        <g id="node22" class="node">
            <title>\\AdamRocska\\ShippingTier\\Entity\\ShippingMethodBranch</title>
            <polygon fill="none" stroke="#000000"
                     points="834.6091,-889 686.6531,-889 686.6531,-853 834.6091,-853 834.6091,-889"/>
            <text text-anchor="middle" x="760.6311" y="-867.7" font-family="Courier,monospace" font-size="11.00"
                  fill="#000000">ShippingMethodBranch
            </text>
        </g>
        <!-- \\AdamRocska\\ShippingTier\\Entity\\Runtime\\WildCardShippingMethodBranch&#45;&gt;\\AdamRocska\\ShippingTier\\Entity\\ShippingMethodBranch -->
        <g id="edge1" class="edge">
            <title>\\AdamRocska\\ShippingTier\\Entity\\Runtime\\WildCardShippingMethodBranch&#45;&gt;\\AdamRocska\\ShippingTier\\Entity\\ShippingMethodBranch</title>
            <path fill="none" stroke="#000000" stroke-dasharray="1,5"
                  d="M977.7245,-546.0004C972.4319,-548.6052 967.3694,-551.5869 962.7108,-555 857.7168,-631.9224 793.4887,-781.3561 770.3721,-843.1841"/>
            <polygon fill="none" stroke="#000000"
                     points="767.0513,-842.0742 766.8937,-852.6678 773.6232,-844.4846 767.0513,-842.0742"/>
        </g>
        <!-- \\AdamRocska\\ShippingTier\\Entity\\Runtime\\Carrier -->
        <g id="node4" class="node">
            <title>\\AdamRocska\\ShippingTier\\Entity\\Runtime\\Carrier</title>
            <polygon fill="none" stroke="#000000"
                     points="1094.288,-600 1031.9028,-600 1031.9028,-564 1094.288,-564 1094.288,-600"/>
            <text text-anchor="middle" x="1063.0954" y="-578.7" font-family="Courier,monospace" font-size="11.00"
                  fill="#000000">Carrier
            </text>
        </g>
        <!-- \\AdamRocska\\ShippingTier\\Entity\\Carrier -->
        <g id="node19" class="node">
            <title>\\AdamRocska\\ShippingTier\\Entity\\Carrier</title>
            <polygon fill="none" stroke="#000000"
                     points="791.8237,-1051 729.4385,-1051 729.4385,-1015 791.8237,-1015 791.8237,-1051"/>
            <text text-anchor="middle" x="760.6311" y="-1029.7" font-family="Courier,monospace" font-size="11.00"
                  fill="#000000">Carrier
            </text>
        </g>
        <!-- \\AdamRocska\\ShippingTier\\Entity\\Runtime\\Carrier&#45;&gt;\\AdamRocska\\ShippingTier\\Entity\\Carrier -->
        <g id="edge6" class="edge">
            <title>\\AdamRocska\\ShippingTier\\Entity\\Runtime\\Carrier&#45;&gt;\\AdamRocska\\ShippingTier\\Entity\\Carrier</title>
            <path fill="none" stroke="#000000" stroke-dasharray="1,5"
                  d="M1031.8987,-582.036C1009.4586,-583.808 980.1835,-590.0069 962.7108,-609 841.3026,-740.9723 1015.9003,-877.609 890.7108,-1006 867.9806,-1029.3115 830.7654,-1035.1238 801.9514,-1035.6476"/>
            <polygon fill="none" stroke="#000000"
                     points="801.7664,-1032.1473 791.7582,-1035.6239 801.75,-1039.1472 801.7664,-1032.1473"/>
        </g>
        <!-- \\AdamRocska\\ShippingTier\\Entity\\Runtime\\Country -->
        <g id="node5" class="node">
            <title>\\AdamRocska\\ShippingTier\\Entity\\Runtime\\Country</title>
            <polygon fill="none" stroke="#000000"
                     points="1094.288,-654 1031.9028,-654 1031.9028,-618 1094.288,-618 1094.288,-654"/>
            <text text-anchor="middle" x="1063.0954" y="-632.7" font-family="Courier,monospace" font-size="11.00"
                  fill="#000000">Country
            </text>
        </g>
        <!-- \\AdamRocska\\ShippingTier\\Entity\\Country -->
        <g id="node20" class="node">
            <title>\\AdamRocska\\ShippingTier\\Entity\\Country</title>
            <polygon fill="none" stroke="#000000"
                     points="791.8237,-1105 729.4385,-1105 729.4385,-1069 791.8237,-1069 791.8237,-1105"/>
            <text text-anchor="middle" x="760.6311" y="-1083.7" font-family="Courier,monospace" font-size="11.00"
                  fill="#000000">Country
            </text>
        </g>
        <!-- \\AdamRocska\\ShippingTier\\Entity\\Runtime\\Country&#45;&gt;\\AdamRocska\\ShippingTier\\Entity\\Country -->
        <g id="edge7" class="edge">
            <title>\\AdamRocska\\ShippingTier\\Entity\\Runtime\\Country&#45;&gt;\\AdamRocska\\ShippingTier\\Entity\\Country</title>
            <path fill="none" stroke="#000000" stroke-dasharray="1,5"
                  d="M1031.8987,-636.036C1009.4586,-637.808 980.1835,-644.0069 962.7108,-663 841.3026,-794.9723 1015.9003,-931.609 890.7108,-1060 867.9806,-1083.3115 830.7654,-1089.1238 801.9514,-1089.6476"/>
            <polygon fill="none" stroke="#000000"
                     points="801.7664,-1086.1473 791.7582,-1089.6239 801.75,-1093.1472 801.7664,-1086.1473"/>
        </g>
        <!-- \\AdamRocska\\ShippingTier\\Entity\\Runtime\\ShippingMethod -->
        <g id="node6" class="node">
            <title>\\AdamRocska\\ShippingTier\\Entity\\Runtime\\ShippingMethod</title>
            <polygon fill="none" stroke="#000000"
                     points="1117.4807,-708 1008.7101,-708 1008.7101,-672 1117.4807,-672 1117.4807,-708"/>
            <text text-anchor="middle" x="1063.0954" y="-686.7" font-family="Courier,monospace" font-size="11.00"
                  fill="#000000">ShippingMethod
            </text>
        </g>
        <!-- \\AdamRocska\\ShippingTier\\Entity\\ShippingMethod -->
        <g id="node21" class="node">
            <title>\\AdamRocska\\ShippingTier\\Entity\\ShippingMethod</title>
            <polygon fill="none" stroke="#000000"
                     points="815.0164,-1159 706.2458,-1159 706.2458,-1123 815.0164,-1123 815.0164,-1159"/>
            <text text-anchor="middle" x="760.6311" y="-1137.7" font-family="Courier,monospace" font-size="11.00"
                  fill="#000000">ShippingMethod
            </text>
        </g>
        <!-- \\AdamRocska\\ShippingTier\\Entity\\Runtime\\ShippingMethod&#45;&gt;\\AdamRocska\\ShippingTier\\Entity\\ShippingMethod -->
        <g id="edge8" class="edge">
            <title>\\AdamRocska\\ShippingTier\\Entity\\Runtime\\ShippingMethod&#45;&gt;\\AdamRocska\\ShippingTier\\Entity\\ShippingMethod</title>
            <path fill="none" stroke="#000000" stroke-dasharray="1,5"
                  d="M1008.7418,-693.3988C991.8455,-697.12 974.5629,-704.1166 962.7108,-717 841.3026,-848.9723 1015.9003,-985.609 890.7108,-1114 873.7333,-1131.4117 848.6749,-1139.0609 825.072,-1142.0357"/>
            <polygon fill="none" stroke="#000000"
                     points="824.6738,-1138.558 815.0734,-1143.0393 825.3729,-1145.523 824.6738,-1138.558"/>
        </g>
        <!-- \\AdamRocska\\ShippingTier\\Entity\\LazyCarrierInjectionAware -->
        <g id="node26" class="node">
            <title>\\AdamRocska\\ShippingTier\\Entity\\LazyCarrierInjectionAware</title>
            <polygon fill="none" stroke="#000000"
                     points="851.1036,-1213 670.1586,-1213 670.1586,-1177 851.1036,-1177 851.1036,-1213"/>
            <text text-anchor="middle" x="760.6311" y="-1191.7" font-family="Courier,monospace" font-size="11.00"
                  fill="#000000">LazyCarrierInjectionAware
            </text>
        </g>
        <!-- \\AdamRocska\\ShippingTier\\Entity\\Runtime\\ShippingMethod&#45;&gt;\\AdamRocska\\ShippingTier\\Entity\\LazyCarrierInjectionAware -->
        <g id="edge9" class="edge">
            <title>\\AdamRocska\\ShippingTier\\Entity\\Runtime\\ShippingMethod&#45;&gt;\\AdamRocska\\ShippingTier\\Entity\\LazyCarrierInjectionAware</title>
            <path fill="none" stroke="#000000" stroke-dasharray="1,5"
                  d="M1008.8452,-693.1978C991.8539,-696.8933 974.4867,-703.9252 962.7108,-717 826.8676,-867.8264 1030.8767,-1021.1821 890.7108,-1168 882.3741,-1176.7324 872.0083,-1183.0225 860.7917,-1187.5041"/>
            <polygon fill="none" stroke="#000000"
                     points="859.4813,-1184.2544 851.1956,-1190.8572 861.7904,-1190.8626 859.4813,-1184.2544"/>
        </g>
        <!-- \\AdamRocska\\ShippingTier\\Entity\\Runtime\\ShippingMethodBranch -->
        <g id="node7" class="node">
            <title>\\AdamRocska\\ShippingTier\\Entity\\Runtime\\ShippingMethodBranch</title>
            <polygon fill="none" stroke="#000000"
                     points="1137.0734,-492 989.1174,-492 989.1174,-456 1137.0734,-456 1137.0734,-492"/>
            <text text-anchor="middle" x="1063.0954" y="-470.7" font-family="Courier,monospace" font-size="11.00"
                  fill="#000000">ShippingMethodBranch
            </text>
        </g>
        <!-- \\AdamRocska\\ShippingTier\\Entity\\Runtime\\ShippingMethodBranch&#45;&gt;\\AdamRocska\\ShippingTier\\Entity\\LazyTierInjectionAware -->
        <g id="edge11" class="edge">
            <title>\\AdamRocska\\ShippingTier\\Entity\\Runtime\\ShippingMethodBranch&#45;&gt;\\AdamRocska\\ShippingTier\\Entity\\LazyTierInjectionAware</title>
            <path fill="none" stroke="#000000" stroke-dasharray="1,5"
                  d="M989.0562,-483.4372C979.1379,-487.5053 969.9198,-493.1637 962.7108,-501 841.3026,-632.9723 1015.9003,-769.609 890.7108,-898 879.9457,-909.0403 865.9317,-916.1557 851.0999,-920.6431"/>
            <polygon fill="none" stroke="#000000"
                     points="850.0439,-917.3016 841.2611,-923.2273 851.8223,-924.072 850.0439,-917.3016"/>
        </g>
        <!-- \\AdamRocska\\ShippingTier\\Entity\\Runtime\\ShippingMethodBranch&#45;&gt;\\AdamRocska\\ShippingTier\\Entity\\LazyShippingMethodInjectionAware -->
        <g id="edge12" class="edge">
            <title>\\AdamRocska\\ShippingTier\\Entity\\Runtime\\ShippingMethodBranch&#45;&gt;\\AdamRocska\\ShippingTier\\Entity\\LazyShippingMethodInjectionAware</title>
            <path fill="none" stroke="#000000" stroke-dasharray="1,5"
                  d="M988.9086,-483.3029C979.0101,-487.3889 969.8367,-493.0881 962.7108,-501 826.8676,-651.8264 1030.8767,-805.1821 890.7108,-952 888.206,-954.6236 885.5181,-957.0268 882.679,-959.2267"/>
            <polygon fill="none" stroke="#000000"
                     points="880.6186,-956.395 874.3041,-964.9025 884.5457,-962.1896 880.6186,-956.395"/>
        </g>
        <!-- \\AdamRocska\\ShippingTier\\Entity\\Runtime\\ShippingMethodBranch&#45;&gt;\\AdamRocska\\ShippingTier\\Entity\\ShippingMethodBranch -->
        <g id="edge10" class="edge">
            <title>\\AdamRocska\\ShippingTier\\Entity\\Runtime\\ShippingMethodBranch&#45;&gt;\\AdamRocska\\ShippingTier\\Entity\\ShippingMethodBranch</title>
            <path fill="none" stroke="#000000" stroke-dasharray="1,5"
                  d="M989.0453,-486.4429C979.5923,-490.1133 970.5105,-494.8608 962.7108,-501 845.3677,-593.3609 786.7086,-773.5169 767.7271,-842.8613"/>
            <polygon fill="none" stroke="#000000"
                     points="764.3149,-842.0731 765.1149,-852.6377 771.0777,-843.8801 764.3149,-842.0731"/>
        </g>
        <!-- \\AdamRocska\\ShippingTier\\Entity\\Runtime\\DoorToDoorTransitTime -->
        <g id="node8" class="node">
            <title>\\AdamRocska\\ShippingTier\\Entity\\Runtime\\DoorToDoorTransitTime</title>
            <polygon fill="none" stroke="#000000"
                     points="1140.1729,-762 986.0179,-762 986.0179,-726 1140.1729,-726 1140.1729,-762"/>
            <text text-anchor="middle" x="1063.0954" y="-740.7" font-family="Courier,monospace" font-size="11.00"
                  fill="#000000">DoorToDoorTransitTime
            </text>
        </g>
        <!-- \\AdamRocska\\ShippingTier\\Entity\\DoorToDoorTransitTime -->
        <g id="node24" class="node">
            <title>\\AdamRocska\\ShippingTier\\Entity\\DoorToDoorTransitTime</title>
            <polygon fill="none" stroke="#000000"
                     points="837.7086,-1267 683.5537,-1267 683.5537,-1231 837.7086,-1231 837.7086,-1267"/>
            <text text-anchor="middle" x="760.6311" y="-1245.7" font-family="Courier,monospace" font-size="11.00"
                  fill="#000000">DoorToDoorTransitTime
            </text>
        </g>
        <!-- \\AdamRocska\\ShippingTier\\Entity\\Runtime\\DoorToDoorTransitTime&#45;&gt;\\AdamRocska\\ShippingTier\\Entity\\DoorToDoorTransitTime -->
        <g id="edge13" class="edge">
            <title>\\AdamRocska\\ShippingTier\\Entity\\Runtime\\DoorToDoorTransitTime&#45;&gt;\\AdamRocska\\ShippingTier\\Entity\\DoorToDoorTransitTime</title>
            <path fill="none" stroke="#000000" stroke-dasharray="1,5"
                  d="M985.9126,-754.6001C977.1655,-758.571 969.112,-763.8927 962.7108,-771 826.8676,-921.8264 1030.8767,-1075.1821 890.7108,-1222 879.236,-1234.0194 863.9171,-1241.412 847.8266,-1245.83"/>
            <polygon fill="none" stroke="#000000"
                     points="846.6646,-1242.5081 837.7358,-1248.2113 848.2723,-1249.3209 846.6646,-1242.5081"/>
        </g>
        <!-- \\AdamRocska\\ShippingTier\\Entity\\Runtime\\Tier -->
        <g id="node9" class="node">
            <title>\\AdamRocska\\ShippingTier\\Entity\\Runtime\\Tier</title>
            <polygon fill="none" stroke="#000000"
                     points="1090.0954,-816 1036.0954,-816 1036.0954,-780 1090.0954,-780 1090.0954,-816"/>
            <text text-anchor="middle" x="1063.0954" y="-794.7" font-family="Courier,monospace" font-size="11.00"
                  fill="#000000">Tier
            </text>
        </g>
        <!-- \\AdamRocska\\ShippingTier\\Entity\\LazyShippingMethodBranchListInjection -->
        <g id="node23" class="node">
            <title>\\AdamRocska\\ShippingTier\\Entity\\LazyShippingMethodBranchListInjection</title>
            <polygon fill="none" stroke="#000000"
                     points="890.7905,-1321 630.4718,-1321 630.4718,-1285 890.7905,-1285 890.7905,-1321"/>
            <text text-anchor="middle" x="760.6311" y="-1299.7" font-family="Courier,monospace" font-size="11.00"
                  fill="#000000">LazyShippingMethodBranchListInjection
            </text>
        </g>
        <!-- \\AdamRocska\\ShippingTier\\Entity\\Runtime\\Tier&#45;&gt;\\AdamRocska\\ShippingTier\\Entity\\LazyShippingMethodBranchListInjection -->
        <g id="edge15" class="edge">
            <title>\\AdamRocska\\ShippingTier\\Entity\\Runtime\\Tier&#45;&gt;\\AdamRocska\\ShippingTier\\Entity\\LazyShippingMethodBranchListInjection</title>
            <path fill="none" stroke="#000000" stroke-dasharray="1,5"
                  d="M1062.5239,-816.1535C1059.2496,-887.2118 1037.3008,-1148.8071 890.7108,-1276 889.5131,-1277.0392 888.2859,-1278.0421 887.0317,-1279.0098"/>
            <polygon fill="none" stroke="#000000"
                     points="884.6809,-1276.3763 878.3873,-1284.8993 888.6222,-1282.1612 884.6809,-1276.3763"/>
        </g>
        <!-- \\AdamRocska\\ShippingTier\\Entity\\Tier -->
        <g id="node25" class="node">
            <title>\\AdamRocska\\ShippingTier\\Entity\\Tier</title>
            <polygon fill="none" stroke="#000000"
                     points="787.6311,-1375 733.6311,-1375 733.6311,-1339 787.6311,-1339 787.6311,-1375"/>
            <text text-anchor="middle" x="760.6311" y="-1353.7" font-family="Courier,monospace" font-size="11.00"
                  fill="#000000">Tier
            </text>
        </g>
        <!-- \\AdamRocska\\ShippingTier\\Entity\\Runtime\\Tier&#45;&gt;\\AdamRocska\\ShippingTier\\Entity\\Tier -->
        <g id="edge14" class="edge">
            <title>\\AdamRocska\\ShippingTier\\Entity\\Runtime\\Tier&#45;&gt;\\AdamRocska\\ShippingTier\\Entity\\Tier
            </title>
            <path fill="none" stroke="#000000" stroke-dasharray="1,5"
                  d="M1059.7549,-816.0233C1043.7263,-900.5905 972.1163,-1256.9947 890.7108,-1330 865.5539,-1352.5609 826.5873,-1358.1419 797.857,-1358.7888"/>
            <polygon fill="none" stroke="#000000"
                     points="797.7667,-1355.2891 787.7798,-1358.8263 797.7928,-1362.289 797.7667,-1355.2891"/>
        </g>
        <!-- \\AdamRocska\\ShippingTier\\Entity\\Exception -->
        <g id="node16" class="node">
            <title>\\AdamRocska\\ShippingTier\\Entity\\Exception</title>
            <polygon fill="none" stroke="#000000"
                     points="411.3574,-264 335.5752,-264 335.5752,-228 411.3574,-228 411.3574,-264"/>
            <text text-anchor="middle" x="373.4663" y="-242.7" font-family="Courier,monospace" font-size="11.00"
                  fill="#000000">Exception
            </text>
        </g>
        <!-- \\AdamRocska\\ShippingTier\\Entity\\Runtime\\Exception&#45;&gt;\\AdamRocska\\ShippingTier\\Entity\\Exception -->
        <g id="edge16" class="edge">
            <title>\\AdamRocska\\ShippingTier\\Entity\\Runtime\\Exception&#45;&gt;\\AdamRocska\\ShippingTier\\Entity\\Exception</title>
            <path fill="none" stroke="#000000"
                  d="M496.102,-341.7695C489.288,-336.7002 481.9151,-331.1676 475.1614,-326 451.171,-307.6438 424.3241,-286.4982 404.2412,-270.5585"/>
            <polygon fill="none" stroke="#000000"
                     points="406.357,-267.7694 396.3506,-264.2875 402.0017,-273.2495 406.357,-267.7694"/>
        </g>
        <!-- \\AdamRocska\\ShippingTier\\Entity\\Carrier\\Exception\\NoShippingMethod -->
        <g id="node11" class="node">
            <title>\\AdamRocska\\ShippingTier\\Entity\\Carrier\\Exception\\NoShippingMethod</title>
            <polygon fill="none" stroke="#000000"
                     points="821.2142,-264 700.048,-264 700.048,-228 821.2142,-228 821.2142,-264"/>
            <text text-anchor="middle" x="760.6311" y="-242.7" font-family="Courier,monospace" font-size="11.00"
                  fill="#000000">NoShippingMethod
            </text>
        </g>
        <!-- \\AdamRocska\\ShippingTier\\Entity\\Carrier\\Exception -->
        <g id="node12" class="node">
            <title>\\AdamRocska\\ShippingTier\\Entity\\Carrier\\Exception</title>
            <polygon fill="none" stroke="#000000"
                     points="558.7475,-264 482.9653,-264 482.9653,-228 558.7475,-228 558.7475,-264"/>
            <text text-anchor="middle" x="520.8564" y="-242.7" font-family="Courier,monospace" font-size="11.00"
                  fill="#000000">Exception
            </text>
        </g>
        <!-- \\AdamRocska\\ShippingTier\\Entity\\Carrier\\Exception\\NoShippingMethod&#45;&gt;\\AdamRocska\\ShippingTier\\Entity\\Carrier\\Exception -->
        <g id="edge18" class="edge">
            <title>\\AdamRocska\\ShippingTier\\Entity\\Carrier\\Exception\\NoShippingMethod&#45;&gt;\\AdamRocska\\ShippingTier\\Entity\\Carrier\\Exception</title>
            <path fill="none" stroke="#000000" d="M699.8159,-246C659.2339,-246 606.6128,-246 568.953,-246"/>
            <polygon fill="none" stroke="#000000"
                     points="568.7502,-242.5001 558.7502,-246 568.7502,-249.5001 568.7502,-242.5001"/>
        </g>
        <!-- \\AdamRocska\\ShippingTier\\Entity\\Carrier\\Exception&#45;&gt;\\AdamRocska\\ShippingTier\\Entity\\Exception -->
        <g id="edge17" class="edge">
            <title>\\AdamRocska\\ShippingTier\\Entity\\Carrier\\Exception&#45;&gt;\\AdamRocska\\ShippingTier\\Entity\\Exception</title>
            <path fill="none" stroke="#000000" d="M482.8998,-246C464.1604,-246 441.3531,-246 421.4196,-246"/>
            <polygon fill="none" stroke="#000000"
                     points="421.2944,-242.5001 411.2943,-246 421.2943,-249.5001 421.2944,-242.5001"/>
        </g>
        <!-- \\AdamRocska\\ShippingTier\\Entity\\Tier\\Exception\\NoShippingMethodBranchForCountry -->
        <g id="node13" class="node">
            <title>\\AdamRocska\\ShippingTier\\Entity\\Tier\\Exception\\NoShippingMethodBranchForCountry</title>
            <polygon fill="none" stroke="#000000"
                     points="874.296,-146 646.9663,-146 646.9663,-110 874.296,-110 874.296,-146"/>
            <text text-anchor="middle" x="760.6311" y="-124.7" font-family="Courier,monospace" font-size="11.00"
                  fill="#000000">NoShippingMethodBranchForCountry
            </text>
        </g>
        <!-- \\AdamRocska\\ShippingTier\\Entity\\Tier\\Exception -->
        <g id="node15" class="node">
            <title>\\AdamRocska\\ShippingTier\\Entity\\Tier\\Exception</title>
            <polygon fill="none" stroke="#000000"
                     points="558.7475,-146 482.9653,-146 482.9653,-110 558.7475,-110 558.7475,-146"/>
            <text text-anchor="middle" x="520.8564" y="-124.7" font-family="Courier,monospace" font-size="11.00"
                  fill="#000000">Exception
            </text>
        </g>
        <!-- \\AdamRocska\\ShippingTier\\Entity\\Tier\\Exception\\NoShippingMethodBranchForCountry&#45;&gt;\\AdamRocska\\ShippingTier\\Entity\\Tier\\Exception -->
        <g id="edge21" class="edge">
            <title>\\AdamRocska\\ShippingTier\\Entity\\Tier\\Exception\\NoShippingMethodBranchForCountry&#45;&gt;\\AdamRocska\\ShippingTier\\Entity\\Tier\\Exception</title>
            <path fill="none" stroke="#000000" d="M646.7125,-128C619.2786,-128 591.4269,-128 568.9225,-128"/>
            <polygon fill="none" stroke="#000000"
                     points="568.6557,-124.5001 558.6557,-128 568.6557,-131.5001 568.6557,-124.5001"/>
        </g>
        <!-- \\AdamRocska\\ShippingTier\\Entity\\Tier\\Exception\\NoShippingMethodBranchesBound -->
        <g id="node14" class="node">
            <title>\\AdamRocska\\ShippingTier\\Entity\\Tier\\Exception\\NoShippingMethodBranchesBound</title>
            <polygon fill="none" stroke="#000000"
                     points="864.4996,-92 656.7627,-92 656.7627,-56 864.4996,-56 864.4996,-92"/>
            <text text-anchor="middle" x="760.6311" y="-70.7" font-family="Courier,monospace" font-size="11.00"
                  fill="#000000">NoShippingMethodBranchesBound
            </text>
        </g>
        <!-- \\AdamRocska\\ShippingTier\\Entity\\Tier\\Exception\\NoShippingMethodBranchesBound&#45;&gt;\\AdamRocska\\ShippingTier\\Entity\\Tier\\Exception -->
        <g id="edge22" class="edge">
            <title>\\AdamRocska\\ShippingTier\\Entity\\Tier\\Exception\\NoShippingMethodBranchesBound&#45;&gt;\\AdamRocska\\ShippingTier\\Entity\\Tier\\Exception</title>
            <path fill="none" stroke="#000000"
                  d="M671.6713,-92.0122C657.8859,-94.934 643.8227,-97.9905 630.5515,-101 610.1102,-105.6355 587.6186,-111.1061 568.351,-115.9068"/>
            <polygon fill="none" stroke="#000000"
                     points="567.448,-112.5248 558.5972,-118.3482 569.1478,-119.3153 567.448,-112.5248"/>
        </g>
        <!-- \\AdamRocska\\ShippingTier\\Entity\\Tier\\Exception&#45;&gt;\\AdamRocska\\ShippingTier\\Entity\\Exception -->
        <g id="edge20" class="edge">
            <title>\\AdamRocska\\ShippingTier\\Entity\\Tier\\Exception&#45;&gt;\\AdamRocska\\ShippingTier\\Entity\\Exception</title>
            <path fill="none" stroke="#000000"
                  d="M498.1497,-146.1789C472.8674,-166.4199 431.881,-199.2334 403.8513,-221.6739"/>
            <polygon fill="none" stroke="#000000"
                     points="401.576,-219.012 395.957,-227.9941 405.9508,-224.4765 401.576,-219.012"/>
        </g>
        <!-- \\AdamRocska\\ShippingTier\\Exception -->
        <g id="node27" class="node">
            <title>\\AdamRocska\\ShippingTier\\Exception</title>
            <polygon fill="none" stroke="#000000"
                     points="263.9673,-264 188.1851,-264 188.1851,-228 263.9673,-228 263.9673,-264"/>
            <text text-anchor="middle" x="226.0762" y="-242.7" font-family="Courier,monospace" font-size="11.00"
                  fill="#000000">Exception
            </text>
        </g>
        <!-- \\AdamRocska\\ShippingTier\\Entity\\Exception&#45;&gt;\\AdamRocska\\ShippingTier\\Exception -->
        <g id="edge19" class="edge">
            <title>\\AdamRocska\\ShippingTier\\Entity\\Exception&#45;&gt;\\AdamRocska\\ShippingTier\\Exception</title>
            <path fill="none" stroke="#000000" d="M335.5097,-246C316.7703,-246 293.963,-246 274.0295,-246"/>
            <polygon fill="none" stroke="#000000"
                     points="273.9043,-242.5001 263.9042,-246 273.9042,-249.5001 273.9043,-242.5001"/>
        </g>
        <!-- Exception -->
        <g id="node28" class="node">
            <title>Exception</title>
            <ellipse fill="none" stroke="#000000" cx="66.1906" cy="-246" rx="50.3819" ry="18"/>
            <text text-anchor="middle" x="66.1906" y="-241.8" font-family="Times,serif" font-size="14.00"
                  fill="#c0c0c0">Exception
            </text>
        </g>
        <!-- \\AdamRocska\\ShippingTier\\Exception&#45;&gt;Exception -->
        <g id="edge23" class="edge">
            <title>\\AdamRocska\\ShippingTier\\Exception&#45;&gt;Exception</title>
            <path fill="none" stroke="#000000" d="M188.1856,-246C169.8581,-246 147.4083,-246 126.786,-246"/>
            <polygon fill="none" stroke="#000000"
                     points="126.5189,-242.5001 116.5188,-246 126.5188,-249.5001 126.5189,-242.5001"/>
        </g>
    </g>
</svg>
